<svg width="1440" height="1024" viewBox="0 0 1440 1024" fill="none" xmlns="http://www.w3.org/2000/svg">
<path d="M255.5 3.37651e-05L255.5 1024M85.4964 9.10274e-06L85.5005 1024M170.5 3.04924e-05L170.504 1024M340.5 3.66805e-05L340.5 1024M595.501 3.81546e-05L595.501 1024M425.497 1.35518e-05L425.501 1024M510.5 2.72526e-05L510.505 1024M680.501 4.107e-05L680.501 1024M935.501 3.45575e-05L935.501 1024M765.497 9.77601e-06L765.501 1024M850.5 3.12253e-05L850.505 1024M1020.5 3.73836e-05L1020.5 1024M1275.5 3.84557e-05L1275.5 1024M1105.5 1.36892e-05L1105.5 1024M1190.5 2.75388e-05L1190.5 1024M1360.5 4.13637e-05L1360.5 1024M-3.84757e-05 85L1440 85M-7.95008e-05 170L1440 170M1.53686e-06 255L1440 255M-3.9466e-05 340L1440 340M-8.04985e-05 425L1440 425M-0.000121531 510L1440 510M-4.04637e-05 595L1440 595M-8.14665e-05 680L1440 680M-0.000122529 765L1440 765M-0.000163532 850L1440 850M-8.24642e-05 935L1440 935" stroke="url(#paint0_radial_11_103)" stroke-width="0.5"/>
<defs>
<radialGradient id="paint0_radial_11_103" cx="0" cy="0" r="1" gradientUnits="userSpaceOnUse" gradientTransform="translate(720 512) rotate(-180) scale(736.5 524.068)">
<stop stop-color="#242424" stop-opacity="0.5"/>
<stop offset="0.932047" stop-color="#242424" stop-opacity="0.05"/>
</radialGradient>
</defs>
</svg>
