<svg width="1440" height="1024" viewBox="0 0 1440 1024" fill="none" xmlns="http://www.w3.org/2000/svg">
<path d="M255.5 0.000155835L255.5 1024M85.4964 0.000131173L85.5005 1024M170.5 0.000152563L170.504 1024M340.5 0.000158751L340.5 1024M595.501 0.000160225L595.501 1024M425.497 0.000135622L425.501 1024M510.5 0.000149323L510.505 1024M680.501 0.00016314L680.501 1024M935.501 0.000156628L935.501 1024M765.497 0.000131846L765.501 1024M850.5 0.000153296L850.505 1024M1020.5 0.000159454L1020.5 1024M1275.5 0.000160526L1275.5 1024M1105.5 0.000135759L1105.5 1024M1190.5 0.000149609L1190.5 1024M1360.5 0.000163434L1360.5 1024M-3.84757e-05 85.0001L1440 85.0001M-7.95008e-05 170L1440 170M1.53686e-06 255L1440 255M-3.9466e-05 340L1440 340M-8.04985e-05 425L1440 425M-0.000121531 510L1440 510M-4.04637e-05 595L1440 595M-8.14665e-05 680L1440 680M-0.000122529 765L1440 765M-0.000163532 850L1440 850M-8.24642e-05 935L1440 935" stroke="url(#paint0_radial_14_352)" stroke-width="0.5"/>
<defs>
<radialGradient id="paint0_radial_14_352" cx="0" cy="0" r="1" gradientUnits="userSpaceOnUse" gradientTransform="translate(720 512) rotate(-180) scale(736.5 524.068)">
<stop stop-color="#FFF6F0" stop-opacity="0.5"/>
<stop offset="0.932047" stop-color="#242424" stop-opacity="0.05"/>
</radialGradient>
</defs>
</svg>
