<svg width="150" height="93" viewBox="0 0 150 93" fill="none" xmlns="http://www.w3.org/2000/svg">
<path d="M109.405 48.9298C109.405 48.4812 109.583 48.051 109.901 47.7338C110.218 47.4166 110.648 47.2384 111.097 47.2384C111.545 47.2384 111.975 47.4166 112.293 47.7338C112.61 48.051 112.788 48.4812 112.788 48.9298C112.788 49.3783 112.61 49.8085 112.293 50.1257C111.975 50.4429 111.545 50.6211 111.097 50.6211C110.648 50.6211 110.218 50.4429 109.901 50.1257C109.583 49.8085 109.405 49.3783 109.405 48.9298ZM114.193 48.9298C114.193 48.5868 114.101 48.2717 113.997 47.962C113.588 46.7335 112.464 45.834 111.097 45.834C110.879 45.834 110.686 45.9145 110.48 45.9565C109.076 46.2505 108 47.4388 108 48.9298C108.019 49.7383 108.354 50.5072 108.933 51.0723C109.511 51.6373 110.288 51.9536 111.097 51.9536C111.905 51.9536 112.682 51.6373 113.261 51.0723C113.839 50.5072 114.174 49.7383 114.193 48.9298ZM111.096 36.419C111.318 36.419 111.538 36.4628 111.743 36.5478C111.949 36.6329 112.135 36.7575 112.292 36.9146C112.449 37.0718 112.574 37.2583 112.659 37.4637C112.744 37.669 112.788 37.889 112.788 38.1112C112.788 38.3335 112.744 38.5535 112.659 38.7588C112.574 38.9642 112.449 39.1507 112.292 39.3079C112.135 39.465 111.949 39.5896 111.743 39.6747C111.538 39.7597 111.318 39.8035 111.096 39.8035C110.647 39.8035 110.217 39.6252 109.899 39.3079C109.582 38.9905 109.404 38.5601 109.404 38.1112C109.404 37.6624 109.582 37.232 109.899 36.9146C110.217 36.5973 110.647 36.419 111.096 36.419ZM111.096 41.207C111.503 41.207 111.905 41.1269 112.281 40.9712C112.657 40.8156 112.998 40.5874 113.286 40.2998C113.574 40.0121 113.802 39.6707 113.957 39.2949C114.113 38.9191 114.193 38.5163 114.193 38.1095C114.193 37.7682 114.101 37.4515 113.997 37.1435C113.588 35.915 112.462 35.0137 111.097 35.0137C110.879 35.0137 110.686 35.096 110.48 35.1397C109.076 35.432 108 36.6185 108 38.1095C108 39.8192 109.384 41.207 111.096 41.207ZM134.232 31.2425C134.01 31.2425 133.79 31.1987 133.585 31.1136C133.38 31.0286 133.194 30.9039 133.037 30.7467C132.88 30.5896 132.755 30.403 132.67 30.1977C132.585 29.9924 132.542 29.7724 132.542 29.5502C132.542 29.3281 132.586 29.1081 132.671 28.9029C132.756 28.6977 132.881 28.5113 133.038 28.3543C133.195 28.1973 133.381 28.0728 133.587 27.9879C133.792 27.9031 134.012 27.8595 134.234 27.8597C134.683 27.8597 135.113 28.0379 135.43 28.3551C135.747 28.6723 135.926 29.1025 135.926 29.5511C135.926 29.9997 135.747 30.4299 135.43 30.7471C135.113 31.0643 134.683 31.2425 134.234 31.2425M117.434 60.1403C116.995 60.1261 116.579 59.9417 116.273 59.6261C115.967 59.3104 115.796 58.8883 115.796 58.4489C115.796 58.0095 115.967 57.5873 116.273 57.2717C116.579 56.956 116.995 56.7716 117.434 56.7575C117.656 56.7575 117.876 56.8013 118.082 56.8864C118.287 56.9714 118.473 57.0961 118.63 57.2533C118.787 57.4104 118.912 57.597 118.997 57.8023C119.081 58.0076 119.125 58.2276 119.125 58.4498C119.125 58.8981 118.947 59.3281 118.63 59.6451C118.313 59.9621 117.883 60.1403 117.434 60.1403ZM134.234 26.4545C133.413 26.4545 132.625 26.7808 132.044 27.3617C131.463 27.9426 131.137 28.7305 131.137 29.552C131.137 29.916 131.23 30.2555 131.345 30.581L116.818 55.4765C115.413 55.7705 114.337 56.957 114.337 58.4498C114.356 59.2583 114.691 60.0272 115.269 60.5923C115.848 61.1573 116.625 61.4736 117.433 61.4736C118.242 61.4736 119.019 61.1573 119.597 60.5923C120.176 60.0272 120.511 59.2583 120.53 58.4498C120.518 58.1188 120.453 57.7919 120.336 57.482L134.936 32.5042C136.298 32.1787 137.33 31.0115 137.33 29.5502C137.33 28.729 137.003 27.9416 136.422 27.3611C135.841 26.7806 135.054 26.4545 134.232 26.4545M146.902 31.2425C146.68 31.2425 146.46 31.1987 146.255 31.1136C146.05 31.0286 145.864 30.9039 145.707 30.7467C145.55 30.5896 145.425 30.403 145.34 30.1977C145.255 29.9924 145.212 29.7724 145.212 29.5502C145.212 29.3281 145.256 29.1081 145.341 28.9029C145.426 28.6977 145.551 28.5113 145.708 28.3543C145.865 28.1973 146.051 28.0728 146.257 27.9879C146.462 27.9031 146.682 27.8595 146.904 27.8597C147.353 27.8597 147.783 28.0379 148.1 28.3551C148.417 28.6723 148.596 29.1025 148.596 29.5511C148.596 29.9997 148.417 30.4299 148.1 30.7471C147.783 31.0643 147.353 31.2425 146.904 31.2425M130.104 60.1403C129.656 60.1403 129.226 59.9621 128.909 59.6451C128.592 59.3281 128.414 58.8981 128.414 58.4498C128.414 58.2276 128.457 58.0076 128.542 57.8023C128.627 57.597 128.751 57.4104 128.908 57.2533C129.065 57.0961 129.252 56.9714 129.457 56.8864C129.662 56.8013 129.882 56.7575 130.104 56.7575C130.553 56.7575 130.983 56.9357 131.3 57.2529C131.617 57.5701 131.796 58.0003 131.796 58.4489C131.796 58.8975 131.617 59.3277 131.3 59.6449C130.983 59.9621 130.553 60.1403 130.104 60.1403ZM146.904 26.4545C146.083 26.4545 145.295 26.7808 144.714 27.3617C144.133 27.9426 143.807 28.7305 143.807 29.552C143.807 29.916 143.899 30.2555 144.015 30.581L129.488 55.4765C128.085 55.7705 127.009 56.957 127.009 58.4498C127.036 59.2528 127.373 60.0139 127.951 60.5724C128.529 61.1309 129.301 61.4431 130.104 61.4431C130.908 61.4431 131.68 61.1309 132.257 60.5724C132.835 60.0139 133.173 59.2528 133.2 58.4498C133.2 58.105 133.107 57.7918 133.006 57.482L147.606 32.5042C148.966 32.1787 150 31.0115 150 29.5502C150 28.729 149.673 27.9416 149.092 27.3611C148.511 26.7806 147.724 26.4545 146.902 26.4545" fill="#F79E78"/>
<path d="M17.532 54.808C17.532 54.064 17.232 53.368 16.632 52.72C16.056 52.072 15.336 51.484 14.472 50.956C13.608 50.404 12.408 49.72 10.872 48.904C9.072 47.944 7.62 47.116 6.516 46.42C5.412 45.7 4.464 44.872 3.672 43.936C2.904 42.976 2.52 41.92 2.52 40.768C2.52 39.568 3.036 38.284 4.068 36.916C5.124 35.524 6.408 34.36 7.92 33.424C9.432 32.464 10.824 31.984 12.096 31.984C13.632 31.984 15.42 32.164 17.46 32.524C19.524 32.884 21.024 33.268 21.96 33.676V41.02H19.8C18.696 39.076 17.472 37.564 16.128 36.484C14.808 35.404 13.416 34.864 11.952 34.864C10.728 34.864 9.768 35.248 9.072 36.016C8.376 36.76 8.028 37.732 8.028 38.932C8.028 39.724 8.328 40.468 8.928 41.164C9.528 41.836 10.272 42.448 11.16 43C12.072 43.552 13.296 44.224 14.832 45.016C16.584 45.928 18.012 46.732 19.116 47.428C20.22 48.124 21.144 48.94 21.888 49.876C22.656 50.812 23.04 51.844 23.04 52.972C23.04 54.172 22.476 55.468 21.348 56.86C20.244 58.228 18.888 59.392 17.28 60.352C15.672 61.288 14.208 61.756 12.888 61.756C11.28 61.756 9.36 61.576 7.128 61.216C4.92 60.856 3.324 60.472 2.34 60.064V52.72H4.536C5.688 54.664 7.008 56.176 8.496 57.256C9.984 58.336 11.508 58.876 13.068 58.876C14.412 58.876 15.492 58.48 16.308 57.688C17.124 56.872 17.532 55.912 17.532 54.808ZM57.535 61H50.155V48.94C50.155 47.74 49.963 46.912 49.579 46.456C49.219 45.976 48.571 45.736 47.635 45.736C46.987 45.736 46.327 45.856 45.655 46.096C45.007 46.336 44.263 46.792 43.423 47.464V58.048L46.555 59.2L45.655 61H38.383V48.94C38.383 47.74 38.191 46.912 37.807 46.456C37.447 45.976 36.799 45.736 35.863 45.736C35.191 45.736 34.519 45.856 33.847 46.096C33.199 46.336 32.455 46.792 31.615 47.464V58.048L34.783 59.2L33.883 61H23.371V59.524L26.575 56.932V47.572L23.371 45.628V44.152L30.067 41.092L31.327 45.52L35.935 41.704C36.391 41.512 37.051 41.416 37.915 41.416C39.331 41.416 40.507 41.776 41.443 42.496C42.379 43.192 42.991 44.164 43.279 45.412L47.743 41.704C48.199 41.512 48.859 41.416 49.723 41.416C51.403 41.416 52.735 41.92 53.719 42.928C54.727 43.912 55.231 45.256 55.231 46.96V58.012L58.435 59.2L57.535 61ZM69.0196 41.416C70.6756 41.416 72.1636 41.836 73.4836 42.676C74.8036 43.492 75.8236 44.608 76.5436 46.024C77.2876 47.44 77.6596 49.012 77.6596 50.74C77.6596 52.612 77.0716 54.364 75.8956 55.996C74.7436 57.628 73.2916 58.936 71.5396 59.92C69.7876 60.88 68.0956 61.36 66.4636 61.36C64.8076 61.36 63.3196 60.952 61.9996 60.136C60.7036 59.296 59.6836 58.168 58.9396 56.752C58.1956 55.312 57.8236 53.728 57.8236 52C57.8236 50.128 58.3996 48.388 59.5516 46.78C60.7276 45.148 62.1916 43.852 63.9436 42.892C65.6956 41.908 67.3876 41.416 69.0196 41.416ZM66.9316 44.872C65.7316 44.872 64.8196 45.328 64.1956 46.24C63.5956 47.152 63.2956 48.496 63.2956 50.272C63.2956 52.456 63.7516 54.268 64.6636 55.708C65.5756 57.148 66.8716 57.868 68.5516 57.868C70.9996 57.868 72.2236 56.056 72.2236 52.432C72.2236 50.272 71.7676 48.472 70.8556 47.032C69.9436 45.592 68.6356 44.872 66.9316 44.872ZM87.946 61H77.362V59.524L80.566 56.932V35.764L77.362 33.568V32.092L83.878 29.572H85.606V58.012L88.846 59.2L87.946 61ZM97.9163 61H87.3323V59.524L90.5363 56.932V35.764L87.3323 33.568V32.092L93.8483 29.572H95.5763V58.012L98.8163 59.2L97.9163 61Z" fill="#F79E78"/>
</svg>
