<svg width="42" height="42" viewBox="0 0 42 42" fill="none" xmlns="http://www.w3.org/2000/svg">
<path d="M1.40525 25.9298C1.40525 25.4812 1.58345 25.051 1.90064 24.7338C2.21784 24.4166 2.64804 24.2384 3.09663 24.2384C3.54521 24.2384 3.97541 24.4166 4.29261 24.7338C4.6098 25.051 4.788 25.4812 4.788 25.9298C4.788 26.3783 4.6098 26.8085 4.29261 27.1257C3.97541 27.4429 3.54521 27.6211 3.09663 27.6211C2.64804 27.6211 2.21784 27.4429 1.90064 27.1257C1.58345 26.8085 1.40525 26.3783 1.40525 25.9298ZM6.19325 25.9298C6.19325 25.5868 6.1005 25.2717 5.99725 24.962C5.58775 23.7335 4.46425 22.834 3.0975 22.834C2.87875 22.834 2.68625 22.9145 2.47975 22.9565C1.07625 23.2505 0 24.4388 0 25.9298C0.0192221 26.7383 0.353912 27.5072 0.932547 28.0723C1.51118 28.6373 2.28787 28.9536 3.09663 28.9536C3.90538 28.9536 4.68207 28.6373 5.2607 28.0723C5.83934 27.5072 6.17403 26.7383 6.19325 25.9298ZM3.09575 13.419C3.31798 13.419 3.53803 13.4628 3.74335 13.5478C3.94866 13.6329 4.13521 13.7575 4.29235 13.9146C4.44949 14.0718 4.57414 14.2583 4.65918 14.4637C4.74423 14.669 4.788 14.889 4.788 15.1112C4.788 15.3335 4.74423 15.5535 4.65918 15.7588C4.57414 15.9642 4.44949 16.1507 4.29235 16.3079C4.13521 16.465 3.94866 16.5896 3.74335 16.6747C3.53803 16.7597 3.31798 16.8035 3.09575 16.8035C2.64694 16.8035 2.21651 16.6252 1.89915 16.3079C1.58179 15.9905 1.4035 15.5601 1.4035 15.1112C1.4035 14.6624 1.58179 14.232 1.89915 13.9146C2.21651 13.5973 2.64694 13.419 3.09575 13.419ZM3.09575 18.207C3.50252 18.207 3.90531 18.1269 4.28111 17.9712C4.65692 17.8156 4.99838 17.5874 5.28601 17.2998C5.57364 17.0121 5.8018 16.6707 5.95747 16.2949C6.11313 15.9191 6.19325 15.5163 6.19325 15.1095C6.19325 14.7682 6.1005 14.4515 5.99725 14.1435C5.58775 12.915 4.4625 12.0137 3.0975 12.0137C2.87875 12.0137 2.68625 12.096 2.47975 12.1397C1.07625 12.432 0 13.6185 0 15.1095C0 16.8192 1.38425 18.207 3.09575 18.207ZM26.2325 8.2425C26.0104 8.2425 25.7904 8.19871 25.5852 8.11365C25.38 8.02858 25.1935 7.90391 25.0365 7.74674C24.8795 7.58958 24.755 7.40302 24.6702 7.19771C24.5853 6.99241 24.5418 6.7724 24.542 6.55025C24.542 6.3281 24.5858 6.10813 24.6708 5.90292C24.7559 5.6977 24.8806 5.51127 25.0378 5.35427C25.1949 5.19726 25.3815 5.07278 25.5868 4.98793C25.7921 4.90307 26.0121 4.85952 26.2343 4.85975C26.6828 4.85975 27.113 5.03795 27.4302 5.35514C27.7474 5.67234 27.9256 6.10254 27.9256 6.55112C27.9256 6.9997 27.7474 7.42991 27.4302 7.74711C27.113 8.0643 26.6828 8.2425 26.2343 8.2425M9.43425 37.1403C8.99509 37.1261 8.57864 36.9417 8.27298 36.6261C7.96732 36.3104 7.79641 35.8883 7.79641 35.4489C7.79641 35.0095 7.96732 34.5873 8.27298 34.2717C8.57864 33.956 8.99509 33.7716 9.43425 33.7575C9.6564 33.7575 9.87637 33.8013 10.0816 33.8864C10.2868 33.9714 10.4732 34.0961 10.6302 34.2533C10.7872 34.4104 10.9117 34.597 10.9966 34.8023C11.0814 35.0076 11.125 35.2276 11.1247 35.4498C11.1247 35.8981 10.9466 36.3281 10.6296 36.6451C10.3126 36.9621 9.8826 37.1403 9.43425 37.1403ZM26.2343 3.4545C25.4127 3.4545 24.6249 3.78084 24.044 4.36173C23.4631 4.94263 23.1367 5.73049 23.1367 6.552C23.1367 6.916 23.2295 7.2555 23.345 7.581L8.81825 32.4765C7.413 32.7705 6.33675 33.957 6.33675 35.4498C6.35597 36.2583 6.69066 37.0272 7.2693 37.5923C7.84793 38.1573 8.62462 38.4736 9.43338 38.4736C10.2421 38.4736 11.0188 38.1573 11.5975 37.5923C12.1761 37.0272 12.5108 36.2583 12.53 35.4498C12.5183 35.1188 12.4527 34.7919 12.3357 34.482L26.936 9.50425C28.2975 9.17875 29.33 8.0115 29.33 6.55025C29.3295 5.72904 29.003 4.94163 28.4221 4.36112C27.8413 3.7806 27.0537 3.4545 26.2325 3.4545M38.9025 8.2425C38.6804 8.2425 38.4604 8.19871 38.2552 8.11365C38.05 8.02858 37.8635 7.90391 37.7065 7.74674C37.5495 7.58958 37.425 7.40302 37.3402 7.19771C37.2553 6.99241 37.2118 6.7724 37.212 6.55025C37.212 6.3281 37.2558 6.10813 37.3408 5.90292C37.4259 5.6977 37.5506 5.51127 37.7078 5.35427C37.8649 5.19726 38.0515 5.07278 38.2568 4.98793C38.4621 4.90307 38.6821 4.85952 38.9043 4.85975C39.3528 4.85975 39.783 5.03795 40.1002 5.35514C40.4174 5.67234 40.5956 6.10254 40.5956 6.55112C40.5956 6.9997 40.4174 7.42991 40.1002 7.74711C39.783 8.0643 39.3528 8.2425 38.9043 8.2425M22.1042 37.1403C21.6559 37.1403 21.2259 36.9621 20.9089 36.6451C20.5919 36.3281 20.4137 35.8981 20.4137 35.4498C20.4135 35.2276 20.4571 35.0076 20.5419 34.8023C20.6268 34.597 20.7513 34.4104 20.9083 34.2533C21.0653 34.0961 21.2517 33.9714 21.4569 33.8864C21.6621 33.8013 21.8821 33.7575 22.1042 33.7575C22.5528 33.7575 22.983 33.9357 23.3002 34.2529C23.6174 34.5701 23.7956 35.0003 23.7956 35.4489C23.7956 35.8975 23.6174 36.3277 23.3002 36.6449C22.983 36.9621 22.5528 37.1403 22.1042 37.1403ZM38.9043 3.4545C38.0827 3.4545 37.2949 3.78084 36.714 4.36173C36.1331 4.94263 35.8068 5.73049 35.8068 6.552C35.8068 6.916 35.8995 7.2555 36.015 7.581L21.4883 32.4765C20.0848 32.7705 19.0085 33.957 19.0085 35.4498C19.0355 36.2528 19.3735 37.0139 19.9511 37.5724C20.5287 38.1309 21.3008 38.4431 22.1042 38.4431C22.9077 38.4431 23.6798 38.1309 24.2574 37.5724C24.835 37.0139 25.173 36.2528 25.2 35.4498C25.2 35.105 25.1072 34.7918 25.0057 34.482L39.606 9.50425C40.9657 9.17875 42 8.0115 42 6.55025C41.9995 5.72904 41.673 4.94163 41.0921 4.36112C40.5113 3.7806 39.7237 3.4545 38.9025 3.4545" fill="#F79E78"/>
</svg>
